<svg xmlns="http://www.w3.org/2000/svg" width="30" height="30" viewBox="0 0 24 24" fill="none"><path d="M11.9998 23.9998C18.6271 23.9998 23.9995 18.6273 23.9995 11.9999C23.9995 5.37254 18.6271 0 11.9998 0C5.37248 0 0 5.37254 0 11.9999C0 18.6273 5.37248 23.9998 11.9998 23.9998Z" fill="#FFE082"></path><path d="M24 11.9999C24 5.38313 18.6169 0 12.0002 0V23.9998C18.6169 23.9998 24 18.6167 24 11.9999Z" fill="#FFC209"></path><path d="M12 21.0002C7.03754 21.0002 3 16.9626 3 12.0001C3 7.03759 7.03754 3 12 3C16.9625 3 21 7.03759 21 12.0001C21 16.9626 16.9625 21.0002 12 21.0002Z" fill="#FFC209"></path><path d="M21 12.0001C21 7.03759 16.9625 3 12 3V21.0002C16.9625 21.0002 21 16.9626 21 12.0001Z" fill="#E89B28"></path><path d="M9.64806 8.32734C9.66694 8.30733 9.68581 8.29883 9.70186 8.29883C9.73064 8.29883 9.75046 8.32584 9.74999 8.35836C9.74905 8.37837 9.74103 8.39938 9.72309 8.41839C9.01336 9.35442 8.49664 10.4485 8.49664 11.9664C8.49664 13.4832 9.01289 14.5558 9.72309 15.4914C9.74103 15.5099 9.74905 15.5329 9.74999 15.5514C9.75046 15.5844 9.73064 15.6114 9.70186 15.6114C9.68581 15.6114 9.66694 15.6034 9.64806 15.5824L6.62227 12.4797C6.47127 12.3431 6.375 12.183 6.375 11.9554C6.375 11.7267 6.47127 11.5672 6.62227 11.4311L9.64806 8.32734Z" fill="#FFE082"></path><path d="M12.0047 8.0625C10.7877 8.0625 10.3125 9.86452 10.3125 12.0119C10.3125 14.1599 10.7882 15.9381 12.0047 15.9381C12.7355 15.9381 13.358 15.4914 13.36 15.1237C13.36 15.0437 13.3304 14.9667 13.2659 14.8993C12.9197 14.5504 12.7849 14.2009 12.783 13.8925C12.781 13.304 13.2698 12.8659 13.7198 12.8659C14.339 12.8659 14.7041 13.3744 14.7041 14.0323C14.7041 14.6557 14.4495 15.1759 14.1731 15.5917C14.162 15.6084 14.1576 15.6276 14.1576 15.6443C14.1576 15.6763 14.176 15.7036 14.2037 15.7036C14.2206 15.7036 14.24 15.6945 14.2614 15.6722L17.3709 12.5316C17.5256 12.3928 17.625 12.2313 17.625 12.0003C17.625 11.7688 17.5256 11.6073 17.3709 11.4695L14.2614 8.32789C14.24 8.30611 14.2206 8.29649 14.2037 8.29649C14.1756 8.29649 14.1576 8.32384 14.1576 8.35625C14.1576 8.37297 14.162 8.39171 14.1731 8.40893C14.4495 8.82423 14.7041 9.34437 14.7041 9.96733C14.7041 10.6252 14.339 11.1347 13.7198 11.1347C13.2698 11.1347 12.781 10.6961 12.783 10.1076C12.7849 9.8002 12.9197 9.45023 13.2659 9.10127C13.3304 9.0334 13.36 8.95693 13.36 8.8769C13.358 8.51022 12.7355 8.0625 12.0047 8.0625Z" fill="#FFE082"></path></svg>