<svg fill="none" width="24" height="24" viewBox="5 5 30 30" xmlns="http://www.w3.org/2000/svg"><title>Entrar em sua conta</title><g><path fill="#205BC6" d="M20,21.2a7,7,0,0,0,7-7V13A7,7,0,0,0,13,13v1.17A7,7,0,0,0,20,21.2ZM15.37,13a4.63,4.63,0,1,1,9.26,0v1.17a4.63,4.63,0,1,1-9.26,0Z"></path><path fill="#205BC6" d="M28.56,24.74A33.77,33.77,0,0,0,20,23.47a33.77,33.77,0,0,0-8.56,1.27,5.86,5.86,0,0,0-4.31,5.65V34H32.87V30.39A5.86,5.86,0,0,0,28.56,24.74Zm1.91,6.89H9.53V30.39a3.47,3.47,0,0,1,2.54-3.34A31.42,31.42,0,0,1,20,25.87a31.42,31.42,0,0,1,7.93,1.18,3.47,3.47,0,0,1,2.54,3.34Z"></path></g></svg>